<?xml version="1.0" encoding="UTF-8" standalone="no"?>
<svg
   xmlns:dc="http://purl.org/dc/elements/1.1/"
   xmlns:cc="http://creativecommons.org/ns#"
   xmlns:rdf="http://www.w3.org/1999/02/22-rdf-syntax-ns#"
   xmlns:svg="http://www.w3.org/2000/svg"
   xmlns="http://www.w3.org/2000/svg"
   xmlns:sodipodi="http://sodipodi.sourceforge.net/DTD/sodipodi-0.dtd"
   xmlns:inkscape="http://www.inkscape.org/namespaces/inkscape"
   xml:space="preserve"
   enable-background="new 0 0 280 103"
   viewBox="0 0 999.99998 633.00499"
   height="633.005"
   width="1000"
   y="0px"
   x="0px"
   id="Layer_1"
   version="1.1"
   inkscape:version="0.92.2 (5c3e80d, 2017-08-06)"
   sodipodi:docname="Blockbuster Video.svg"><metadata
     id="metadata105"><rdf:RDF><cc:Work
         rdf:about=""><dc:format>image/svg+xml</dc:format><dc:type
           rdf:resource="http://purl.org/dc/dcmitype/StillImage" /><dc:title></dc:title></cc:Work></rdf:RDF></metadata><sodipodi:namedview
     pagecolor="#ffffff"
     bordercolor="#666666"
     borderopacity="1"
     objecttolerance="10"
     gridtolerance="10"
     guidetolerance="10"
     inkscape:pageopacity="0"
     inkscape:pageshadow="2"
     inkscape:window-width="1366"
     inkscape:window-height="705"
     id="namedview103"
     showgrid="false"
     inkscape:zoom="0.5"
     inkscape:cx="735.08896"
     inkscape:cy="402.58639"
     inkscape:window-x="-8"
     inkscape:window-y="-8"
     inkscape:window-maximized="1"
     inkscape:current-layer="Layer_1" /><defs
     id="defs202"><path
       d="m 284.9,70.6 c -6.4,-5.8 -16.2,-5.4 -22.1,1 -5.8,6.4 -5.4,16.2 1,22.1 0.5,0.5 1.1,0.9 1.7,1.3 L 286,71.7 c -0.4,-0.4 -0.7,-0.8 -1.1,-1.1 z"
       id="SVGID_29_"
       inkscape:connector-curvature="0" /><path
       d="M 102.1,85.2 C 100.5,76.4 89,71.6 77.6,77.8 l 2.9,10 4.6,14.9 2.1,6.8 c 8.6,-5.6 17.2,-12.2 14.9,-24.3 z"
       id="SVGID_31_"
       inkscape:connector-curvature="0" /><linearGradient
       id="SVGID_1_-2"
       gradientUnits="userSpaceOnUse"
       x1="45.867802"
       y1="-92.647797"
       x2="57.866699"
       y2="-39.647598"
       gradientTransform="matrix(1.1656,-0.0446,0.0446,1.1656,-41.2247,170.299)"><stop
         offset="0"
         style="stop-color:#1D2C5F"
         id="stop11098" /><stop
         offset="1"
         style="stop-color:#0071B9"
         id="stop11100" /></linearGradient><linearGradient
       id="SVGID_2_-5"
       gradientUnits="userSpaceOnUse"
       x1="329.81339"
       y1="-113.081"
       x2="323.3139"
       y2="-90.080902"
       gradientTransform="matrix(1.1664,0,0,1.1664,-33.6702,166.171)"><stop
         offset="0"
         style="stop-color:#1D2C5F"
         id="stop11105" /><stop
         offset="1"
         style="stop-color:#0071B9"
         id="stop11107" /></linearGradient><linearGradient
       id="SVGID_3_-5"
       gradientUnits="userSpaceOnUse"
       x1="264.06351"
       y1="-142.907"
       x2="250.06351"
       y2="-108.9071"
       gradientTransform="matrix(1.1664,0,0,1.1664,-29.2719,161.0437)"><stop
         offset="0"
         style="stop-color:#1D2C5F"
         id="stop11112" /><stop
         offset="1"
         style="stop-color:#0071B9"
         id="stop11114" /></linearGradient><linearGradient
       id="SVGID_4_-8"
       gradientUnits="userSpaceOnUse"
       x1="438.58359"
       y1="-102.7302"
       x2="427.5838"
       y2="-72.230103"
       gradientTransform="matrix(1.1664,0,0,1.1664,-30.3412,167.4346)"><stop
         offset="0"
         style="stop-color:#1D2C5F"
         id="stop11119" /><stop
         offset="1"
         style="stop-color:#0071B9"
         id="stop11121" /></linearGradient><linearGradient
       id="SVGID_5_-3"
       gradientUnits="userSpaceOnUse"
       x1="423.74249"
       y1="8.5670004"
       x2="421.24219"
       y2="-118.933"
       gradientTransform="matrix(1.1664,0,0,1.1664,-31.2159,167.7262)"><stop
         offset="0"
         style="stop-color:#1D2C5F"
         id="stop11126" /><stop
         offset="1"
         style="stop-color:#0071B9"
         id="stop11128" /></linearGradient><linearGradient
       id="SVGID_6_-8"
       gradientUnits="userSpaceOnUse"
       x1="380.79431"
       y1="-71.2677"
       x2="418.79431"
       y2="-106.7679"
       gradientTransform="matrix(1.1664,0,0,1.1664,-30.3412,167.4346)"><stop
         offset="0"
         style="stop-color:#1D2C5F"
         id="stop11133" /><stop
         offset="1"
         style="stop-color:#0071B9"
         id="stop11135" /></linearGradient><linearGradient
       id="SVGID_7_-4"
       gradientUnits="userSpaceOnUse"
       x1="242.9969"
       y1="12.1114"
       x2="240.4966"
       y2="-115.3886"
       gradientTransform="matrix(1.1664,0,0,1.1664,-36.8292,164.9561)"><stop
         offset="0"
         style="stop-color:#1D2C5F"
         id="stop11140" /><stop
         offset="1"
         style="stop-color:#0071B9"
         id="stop11142" /></linearGradient><linearGradient
       id="SVGID_8_-0"
       gradientUnits="userSpaceOnUse"
       x1="410.73721"
       y1="8.8220997"
       x2="408.237"
       y2="-118.6779"
       gradientTransform="matrix(1.1664,0,0,1.1664,-30.8516,167.5804)"><stop
         offset="0"
         style="stop-color:#1D2C5F"
         id="stop11147" /><stop
         offset="1"
         style="stop-color:#0071B9"
         id="stop11149" /></linearGradient><linearGradient
       id="SVGID_9_-6"
       gradientUnits="userSpaceOnUse"
       x1="393.54739"
       y1="-102.3971"
       x2="379.54761"
       y2="-79.397003"
       gradientTransform="matrix(1.1664,0.0097,-0.0097,1.1664,-31.262,163.7423)"><stop
         offset="0"
         style="stop-color:#1D2C5F"
         id="stop11154" /><stop
         offset="1"
         style="stop-color:#0071B9"
         id="stop11156" /></linearGradient><linearGradient
       id="SVGID_10_"
       gradientUnits="userSpaceOnUse"
       x1="398.82501"
       y1="9.0556002"
       x2="396.3248"
       y2="-118.4443"
       gradientTransform="matrix(1.1664,0,0,1.1664,-31.2159,167.7262)"><stop
         offset="0"
         style="stop-color:#1D2C5F"
         id="stop11163" /><stop
         offset="1"
         style="stop-color:#0071B9"
         id="stop11165" /></linearGradient><linearGradient
       id="SVGID_11_"
       gradientUnits="userSpaceOnUse"
       x1="356.02469"
       y1="4.2800002"
       x2="351.02399"
       y2="-116.72"
       gradientTransform="matrix(1.1664,0,0,1.1664,-35.2984,163.0607)"><stop
         offset="0"
         style="stop-color:#1D2C5F"
         id="stop11170" /><stop
         offset="1"
         style="stop-color:#0071B9"
         id="stop11172" /></linearGradient><linearGradient
       id="SVGID_12_"
       gradientUnits="userSpaceOnUse"
       x1="336.54581"
       y1="10.2769"
       x2="334.04559"
       y2="-117.2231"
       gradientTransform="matrix(1.1664,0,0,1.1664,-35.0068,162.4774)"><stop
         offset="0"
         style="stop-color:#1D2C5F"
         id="stop11177" /><stop
         offset="1"
         style="stop-color:#0071B9"
         id="stop11179" /></linearGradient><linearGradient
       id="SVGID_13_"
       gradientUnits="userSpaceOnUse"
       x1="326.46011"
       y1="10.4747"
       x2="323.95981"
       y2="-117.0253"
       gradientTransform="matrix(1.1664,0,0,1.1664,-35.1038,162.4774)"><stop
         offset="0"
         style="stop-color:#1D2C5F"
         id="stop11184" /><stop
         offset="1"
         style="stop-color:#0071B9"
         id="stop11186" /></linearGradient><linearGradient
       id="SVGID_14_"
       gradientUnits="userSpaceOnUse"
       x1="304.40549"
       y1="6.4133"
       x2="299.40469"
       y2="-114.5867"
       gradientTransform="matrix(1.1664,0,0,1.1664,-34.9096,162.2831)"><stop
         offset="0"
         style="stop-color:#1D2C5F"
         id="stop11191" /><stop
         offset="1"
         style="stop-color:#0071B9"
         id="stop11193" /></linearGradient><linearGradient
       id="SVGID_15_"
       gradientUnits="userSpaceOnUse"
       x1="288.14651"
       y1="-61.264702"
       x2="326.64651"
       y2="-64.764397"
       gradientTransform="matrix(1.1664,0,0,1.1664,-34.9096,162.2831)"><stop
         offset="0"
         style="stop-color:#1D2C5F"
         id="stop11198" /><stop
         offset="1"
         style="stop-color:#0071B9"
         id="stop11200" /></linearGradient><linearGradient
       id="SVGID_16_"
       gradientUnits="userSpaceOnUse"
       x1="231.4673"
       y1="-90.891602"
       x2="293.46719"
       y2="-133.39169"
       gradientTransform="matrix(1.1664,0,0,1.1664,-29.2719,161.1167)"><stop
         offset="0"
         style="stop-color:#1D2C5F"
         id="stop11205" /><stop
         offset="1"
         style="stop-color:#0071B9"
         id="stop11207" /></linearGradient><linearGradient
       id="SVGID_17_"
       gradientUnits="userSpaceOnUse"
       x1="237.2552"
       y1="12.224"
       x2="234.755"
       y2="-115.276"
       gradientTransform="matrix(1.1651,0.056,-0.056,1.1651,-37.6517,151.7298)"><stop
         offset="0"
         style="stop-color:#1D2C5F"
         id="stop11212" /><stop
         offset="1"
         style="stop-color:#0071B9"
         id="stop11214" /></linearGradient><linearGradient
       id="SVGID_18_"
       gradientUnits="userSpaceOnUse"
       x1="212.4687"
       y1="-118.0039"
       x2="203.4686"
       y2="-97.503899"
       gradientTransform="matrix(1.1664,0,0,1.1664,-35.6386,164.9561)"><stop
         offset="0"
         style="stop-color:#1D2C5F"
         id="stop11219" /><stop
         offset="1"
         style="stop-color:#0071B9"
         id="stop11221" /></linearGradient><linearGradient
       id="SVGID_19_"
       gradientUnits="userSpaceOnUse"
       x1="192.54379"
       y1="13.1007"
       x2="190.04359"
       y2="-114.3993"
       gradientTransform="matrix(1.1663,0.0182,-0.0182,1.1663,-37.2211,156.0918)"><stop
         offset="0"
         style="stop-color:#1D2C5F"
         id="stop11226" /><stop
         offset="1"
         style="stop-color:#0071B9"
         id="stop11228" /></linearGradient><linearGradient
       id="SVGID_20_"
       gradientUnits="userSpaceOnUse"
       x1="186.38831"
       y1="-38.2314"
       x2="151.88831"
       y2="-30.7313"
       gradientTransform="matrix(1.1663,0.0182,-0.0182,1.1663,-37.2211,156.0918)"><stop
         offset="0"
         style="stop-color:#1D2C5F"
         id="stop11233" /><stop
         offset="1"
         style="stop-color:#0071B9"
         id="stop11235" /></linearGradient><linearGradient
       id="SVGID_21_"
       gradientUnits="userSpaceOnUse"
       x1="160.54939"
       y1="-106.0139"
       x2="161.5489"
       y2="-71.513901"
       gradientTransform="matrix(1.1664,0,0,1.1664,-34.7152,164.397)"><stop
         offset="0"
         style="stop-color:#1D2C5F"
         id="stop11240" /><stop
         offset="1"
         style="stop-color:#0071B9"
         id="stop11242" /></linearGradient><linearGradient
       id="SVGID_22_"
       gradientUnits="userSpaceOnUse"
       x1="111.8844"
       y1="14.6824"
       x2="109.3841"
       y2="-112.8176"
       gradientTransform="matrix(1.1656,-0.0446,0.0446,1.1656,-39.4506,169.74)"><stop
         offset="0"
         style="stop-color:#1D2C5F"
         id="stop11247" /><stop
         offset="1"
         style="stop-color:#0071B9"
         id="stop11249" /></linearGradient><linearGradient
       id="SVGID_23_"
       gradientUnits="userSpaceOnUse"
       x1="84.999298"
       y1="-14.0923"
       x2="54"
       y2="-100.5926"
       gradientTransform="matrix(1.1656,-0.0446,0.0446,1.1656,-41.5892,170.5176)"><stop
         offset="0"
         style="stop-color:#1D2C5F"
         id="stop11254" /><stop
         offset="1"
         style="stop-color:#0071B9"
         id="stop11256" /></linearGradient><linearGradient
       id="SVGID_24_"
       gradientUnits="userSpaceOnUse"
       x1="151.6541"
       y1="3.7060001"
       x2="127.1538"
       y2="-90.793999"
       gradientTransform="matrix(1.1524,-0.1803,0.1803,1.1524,-393.60358,728.16096)"><stop
         offset="0"
         style="stop-color:#1D2C5F"
         id="stop11261" /><stop
         offset="1"
         style="stop-color:#0071B9"
         id="stop11263" /></linearGradient><linearGradient
       id="SVGID_25_"
       gradientUnits="userSpaceOnUse"
       x1="166.8589"
       y1="13.6044"
       x2="164.3587"
       y2="-113.8956"
       gradientTransform="matrix(1.1664,0,0,1.1664,-34.7152,164.397)"><stop
         offset="0"
         style="stop-color:#1D2C5F"
         id="stop11268" /><stop
         offset="1"
         style="stop-color:#0071B9"
         id="stop11270" /></linearGradient><linearGradient
       id="SVGID_26_"
       gradientUnits="userSpaceOnUse"
       x1="66.1194"
       y1="15.5798"
       x2="63.619099"
       y2="-111.9201"
       gradientTransform="matrix(1.1664,0,0,1.1664,-44.2649,167.1918)"><stop
         offset="0"
         style="stop-color:#1D2C5F"
         id="stop11275" /><stop
         offset="1"
         style="stop-color:#0071B9"
         id="stop11277" /></linearGradient><linearGradient
       id="SVGID_33_"
       gradientUnits="userSpaceOnUse"
       x1="116.1671"
       y1="-3.0797999"
       x2="114.7248"
       y2="-139.8633"
       gradientTransform="matrix(1.1655,-0.0468,0.0468,1.1655,-403.73428,707.68346)"><stop
         offset="0"
         style="stop-color:#3C5AA6"
         id="stop11398" /><stop
         offset="1"
         style="stop-color:#2A75BB"
         id="stop11400" /></linearGradient><linearGradient
       id="SVGID_34_"
       gradientUnits="userSpaceOnUse"
       x1="266.7298"
       y1="-4.6673002"
       x2="265.28751"
       y2="-141.45081"
       gradientTransform="matrix(1.1074,-0.0346,0.0346,1.1074,-382.02678,702.67126)"><stop
         offset="0"
         style="stop-color:#3C5AA6"
         id="stop11405" /><stop
         offset="1"
         style="stop-color:#2A75BB"
         id="stop11407" /></linearGradient><path
       inkscape:connector-curvature="0"
       id="SVGID_29_-8"
       d="m 284.9,70.6 c -6.4,-5.8 -16.2,-5.4 -22.1,1 -5.8,6.4 -5.4,16.2 1,22.1 0.5,0.5 1.1,0.9 1.7,1.3 L 286,71.7 c -0.4,-0.4 -0.7,-0.8 -1.1,-1.1 z" /><path
       inkscape:connector-curvature="0"
       id="SVGID_31_-4"
       d="M 102.1,85.2 C 100.5,76.4 89,71.6 77.6,77.8 l 2.9,10 4.6,14.9 2.1,6.8 c 8.6,-5.6 17.2,-12.2 14.9,-24.3 z" /><path
       d="m 284.9,70.6 c -6.4,-5.8 -16.2,-5.4 -22.1,1 -5.8,6.4 -5.4,16.2 1,22.1 0.5,0.5 1.1,0.9 1.7,1.3 L 286,71.7 c -0.4,-0.4 -0.7,-0.8 -1.1,-1.1 z"
       id="path11690-9"
       inkscape:connector-curvature="0" /><path
       d="M 102.1,85.2 C 100.5,76.4 89,71.6 77.6,77.8 l 2.9,10 4.6,14.9 2.1,6.8 c 8.6,-5.6 17.2,-12.2 14.9,-24.3 z"
       id="path11696-1"
       inkscape:connector-curvature="0" /><path
       inkscape:connector-curvature="0"
       id="SVGID_29_-9"
       d="m 284.9,70.6 c -6.4,-5.8 -16.2,-5.4 -22.1,1 -5.8,6.4 -5.4,16.2 1,22.1 0.5,0.5 1.1,0.9 1.7,1.3 L 286,71.7 c -0.4,-0.4 -0.7,-0.8 -1.1,-1.1 z" /><path
       inkscape:connector-curvature="0"
       id="SVGID_31_-5"
       d="M 102.1,85.2 C 100.5,76.4 89,71.6 77.6,77.8 l 2.9,10 4.6,14.9 2.1,6.8 c 8.6,-5.6 17.2,-12.2 14.9,-24.3 z" /><path
       d="m 284.9,70.6 c -6.4,-5.8 -16.2,-5.4 -22.1,1 -5.8,6.4 -5.4,16.2 1,22.1 0.5,0.5 1.1,0.9 1.7,1.3 L 286,71.7 c -0.4,-0.4 -0.7,-0.8 -1.1,-1.1 z"
       id="path11690-1"
       inkscape:connector-curvature="0" /><path
       d="M 102.1,85.2 C 100.5,76.4 89,71.6 77.6,77.8 l 2.9,10 4.6,14.9 2.1,6.8 c 8.6,-5.6 17.2,-12.2 14.9,-24.3 z"
       id="path11696-3"
       inkscape:connector-curvature="0" /></defs><linearGradient
     gradientTransform="translate(-408,-677.5)"
     y2="714.04132"
     x2="416.7337"
     y1="732.71002"
     x1="426.75101"
     gradientUnits="userSpaceOnUse"
     id="SVGID_1_"><stop
       id="stop12"
       style="stop-color:#0070B6"
       offset="0" /><stop
       id="stop14"
       style="stop-color:#1D2C5E"
       offset="1" /></linearGradient><linearGradient
     gradientTransform="translate(-408,-677.5)"
     y2="680.94922"
     x2="561.64203"
     y1="694.57318"
     x1="548.92682"
     gradientUnits="userSpaceOnUse"
     id="SVGID_2_"><stop
       id="stop21"
       style="stop-color:#0070B6"
       offset="0" /><stop
       id="stop23"
       style="stop-color:#1D2C5E"
       offset="1" /></linearGradient><linearGradient
     gradientTransform="translate(-408,-677.5)"
     y2="704.54773"
     x2="491.9368"
     y1="717.28607"
     x1="493.45309"
     gradientUnits="userSpaceOnUse"
     id="SVGID_3_"><stop
       id="stop32"
       style="stop-color:#0070B6"
       offset="0" /><stop
       id="stop34"
       style="stop-color:#1D2C5E"
       offset="1" /></linearGradient><linearGradient
     gradientTransform="translate(-408,-677.5)"
     y2="703.336"
     x2="631.74219"
     y1="714.83398"
     x1="632.34772"
     gradientUnits="userSpaceOnUse"
     id="SVGID_4_"><stop
       id="stop39"
       style="stop-color:#125D9E"
       offset="0" /><stop
       id="stop41"
       style="stop-color:#1D2C5E"
       offset="1" /></linearGradient><linearGradient
     gradientTransform="translate(-408,-677.5)"
     y2="719.48871"
     x2="576.56763"
     y1="698.26068"
     x1="589.91107"
     gradientUnits="userSpaceOnUse"
     id="SVGID_5_"><stop
       id="stop52"
       style="stop-color:#125D9E"
       offset="0" /><stop
       id="stop54"
       style="stop-color:#1D2C5E"
       offset="1" /></linearGradient><linearGradient
     gradientTransform="matrix(3.711002,0,0,3.711002,-1534.3175,-2520.4606)"
     y2="750.20251"
     x2="480.91931"
     y1="732.30957"
     x1="471.82129"
     gradientUnits="userSpaceOnUse"
     id="SVGID_6_"><stop
       id="stop65"
       style="stop-color:#105FA1"
       offset="0" /><stop
       id="stop67"
       style="stop-color:#1D2C5E"
       offset="1" /></linearGradient><linearGradient
     gradientTransform="translate(-408,-677.5)"
     y2="750.61151"
     x2="448.0217"
     y1="726.20209"
     x1="437.49219"
     gradientUnits="userSpaceOnUse"
     id="SVGID_7_"><stop
       id="stop74"
       style="stop-color:#105FA1"
       offset="0" /><stop
       id="stop76"
       style="stop-color:#1D2C5E"
       offset="1" /></linearGradient><linearGradient
     gradientTransform="matrix(3.711002,0,0,-3.711002,-2113.2338,-3438.9336)"
     y2="-982.76947"
     x2="655.63483"
     y1="-982.76947"
     x1="639.70612"
     gradientUnits="userSpaceOnUse"
     id="SVGID_8_"><stop
       id="stop177"
       style="stop-color:#3C5AA6"
       offset="0" /><stop
       id="stop179"
       style="stop-color:#2B73B9"
       offset="0.9331" /><stop
       id="stop181"
       style="stop-color:#2A75BB"
       offset="1" /></linearGradient><g
     id="g13469"
     transform="matrix(1.707038,0,0,1.707038,0,-3.9199043)"
     style="clip-rule:evenodd;fill-rule:evenodd"><path
       id="path13457"
       d="m 30.319,186.565 a 49.865,49.865 0 0 1 13.232,7.439 50.614,50.614 0 0 1 10.569,11.329 c 5.906,8.61 8.906,19.182 8.929,29.146 0.03,4.981 -0.64,9.783 -1.977,14.43 a 50.845,50.845 0 0 1 -5.978,13.274 50.93,50.93 0 0 1 -9.654,11.151 51.174,51.174 0 0 1 -12.475,7.926 l 16.238,91.857 c 2.06,-0.359 4.118,-0.72 91.365,-16.107 87.247,-15.389 259.681,-45.803 346.052,-61.039 86.37,-15.234 86.677,-15.29 86.971,-15.343 1.626,-0.296 3.082,-0.544 4.942,-0.909 -0.215,-0.648 -0.538,-1.347 -0.646,-1.946 0.035,-0.242 1.016,-1.326 1.035,-1.913 0.371,-1.497 -0.829,-2.99 -0.291,-4.408 a 5.456,5.456 0 0 1 0.808,-1.778 c 0.604,-0.825 1.601,-2.103 2.646,-2.821 0.196,-0.134 0.41,-0.262 0.681,-0.391 0.271,-0.129 0.597,-0.26 0.796,-0.359 0.59,-0.366 0.468,-0.471 0.582,-0.736 0.077,-0.272 0.107,-0.745 0.1,-1.22 -0.246,-1.291 0.562,-1.941 1.544,-2.694 0.018,-0.145 0.056,-0.434 -0.046,-0.865 0.009,-0.001 -0.609,-0.652 -1.142,-1.222 -0.475,-0.534 -1.028,-1.005 -1.297,-1.581 -0.58,-0.898 -1.47,-1.221 -2.306,-1.166 L 93.137,342.559 52.17,110.339 454.896,39.344 c 83.421,-14.72 81.64,-14.338 82.553,-14.593 0.01,-0.234 -0.201,-0.494 -0.55,-0.811 a 26.63,26.63 0 0 1 -1.533,-1.4 c -0.618,-0.624 -0.878,-0.976 -1.121,-1.393 -0.338,-0.47 -0.088,-0.962 -0.131,-1.152 0.007,-0.065 -0.067,-0.68 -0.132,-1.228 -0.023,-0.223 -0.025,-0.309 -0.023,-0.396 A 6.75,6.75 0 0 0 534,16.26 c -0.081,-0.773 -0.561,-1.97 -1.21,-3.208 -0.12,-0.635 -0.709,-1.158 -1.185,-1.26 -0.393,-0.228 -0.158,-0.579 0.136,-0.708 l -0.006,-0.425 c -0.807,-0.107 -1.376,-0.138 -2.143,-0.987 A 10.967,10.967 0 0 1 528.189,8.124 15.417,15.417 0 0 1 527.68,7.378 c -0.234,-0.373 -0.174,-0.329 -0.238,-0.509 a 3.746,3.746 0 0 1 -0.113,-0.843 c -0.009,-0.226 -0.01,-0.515 0.018,-0.947 0.028,-0.432 0.084,-1.007 0.109,-1.312 0.025,-0.304 0.02,-0.338 0.004,-0.369 -1.915,-1.21 -3.842,-1.176 -5.808,-1.03 L 0,94.322 15.756,183.485 a 49.348,49.348 0 0 1 14.563,3.08 z"
       inkscape:connector-curvature="0"
       style="fill:#383e93" /><path
       id="path13459"
       d="m 578.89,247.369 c -0.022,-0.256 -0.075,-0.508 -0.265,-1.097 -0.191,-0.589 -0.519,-1.516 -2.196,-4.944 -1.677,-3.428 -4.706,-9.358 -7.816,-15.24 0.072,-0.935 0.113,-1.873 0.121,-2.902 0.007,-1.031 -0.018,-2.153 -0.093,-3.944 -0.074,-1.79 -0.199,-4.249 -0.348,-6.706 1.002,-1.727 1.853,-3.658 1.213,-5.174 a 2.846,2.846 0 0 0 -0.424,-0.732 c -0.246,-0.329 -0.642,-0.774 -0.889,-1.09 -0.598,-0.796 -0.577,-1.109 -0.596,-1.612 0.004,-0.157 0.022,-0.32 0.278,-1.466 0.256,-1.146 0.75,-3.275 1.072,-4.596 0.322,-1.321 0.475,-1.832 0.587,-2.193 0.141,-0.465 0.262,-0.744 0.325,-0.948 0.006,-0.032 0.011,-0.068 0.023,-0.212 0.011,-0.145 0.028,-0.397 0.026,-1.3 -0.003,-0.901 -0.026,-2.452 -0.212,-6.197 a 1036.89,1036.89 0 0 0 -0.927,-15.618 c 0.724,-2.101 0.834,-4.019 -0.449,-6.002 -0.205,-0.344 -0.419,-0.68 -0.645,-1.007 l -1.935,-7.64 c 0.615,-1.933 1.227,-3.866 1.762,-5.562 0.534,-1.696 0.992,-3.154 1.331,-4.269 0.339,-1.115 0.559,-1.887 0.767,-2.662 -0.461,-1.084 -0.529,-2.032 -0.509,-3.055 -0.029,-0.812 0.331,-2.606 0.724,-4.336 0.214,-0.962 0.416,-1.85 0.515,-2.416 0.147,-0.885 0.084,-1.051 0.019,-1.444 -0.045,-0.359 -0.433,-0.733 -0.902,-0.926 -0.497,-0.406 -0.604,-0.731 -0.806,-1.226 -0.094,-0.257 -0.188,-0.575 -0.276,-1.012 -0.088,-0.437 -0.172,-0.993 -0.229,-1.748 -0.057,-0.755 -0.086,-1.708 -0.04,-2.874 a 42.37,42.37 0 0 1 0.304,-3.63 c 0.143,-1.085 0.308,-1.877 0.53,-2.652 a 177.394,177.394 0 0 1 -4.165,-6.187 c -1.027,-1.615 -1.538,-2.542 -1.912,-3.251 a 22.671,22.671 0 0 1 -0.827,-1.704 c -0.021,-0.056 -0.039,-0.113 -0.102,-0.452 -0.063,-0.339 -0.173,-0.961 -0.426,-2.822 a 638.72,638.72 0 0 1 -1.021,-8.067 c 0.018,-0.343 0.063,-0.685 0.237,-1.41 0.174,-0.725 0.476,-1.834 0.626,-2.626 0.248,-1.38 0.124,-1.973 0.016,-2.81 -0.141,-1.067 -0.834,-2.207 -1.299,-3.077 -0.198,-0.614 -0.204,-0.945 -0.14,-1.613 0.049,-0.424 0.154,-0.98 0.479,-2.058 0.323,-1.079 0.866,-2.678 1.169,-3.787 0.303,-1.109 0.366,-1.726 0.399,-2.26 0.121,-1.692 -0.115,-3.107 -0.849,-4.596 a 16.285,16.285 0 0 1 -0.669,-1.582 c -0.255,-0.684 -0.571,-1.596 -1.013,-3.306 -0.442,-1.709 -1.012,-4.218 -1.513,-6.737 a 81.61,81.61 0 0 1 -3.154,-5.628 45.013,45.013 0 0 1 -2.04,-4.653 68.59,68.59 0 0 1 -1.653,-4.993 15.563,15.563 0 0 1 -2.177,-1.678 24.212,24.212 0 0 1 -2.4,-2.557 c -0.878,-1.066 -1.848,-2.382 -2.944,-4.406 -1.099,-2.025 -2.323,-4.758 -3.356,-7.557 L 57.673,114.191 97.026,337.026 578.768,252.02 Z"
       inkscape:connector-curvature="0"
       style="fill:#383e93" /><path
       id="path13461"
       d="m 118.762,171.12 6.654,-8.434 -3.33,-18.885 -11.572,-6.98 -28.167,4.966 12.529,71.057 28.168,-4.967 9.428,-12.663 -3.311,-18.778 z m -19.484,-18.787 10.242,-1.806 2.69,15.257 -10.243,1.806 z m 7.882,44.704 -2.859,-16.218 10.243,-1.806 2.859,16.217 z m 43.832,-8.154 -10.121,-57.401 -15.044,2.653 12.529,71.056 31.262,-5.511 -2.408,-13.657 z m 36.747,-65.67 -16.965,2.991 -9.215,12.625 8.767,49.718 13.084,8.694 17.392,-3.067 8.895,-12.569 -8.767,-49.718 z m -3.121,60.285 -7.902,-44.81 10.03,-1.769 7.902,44.811 z m 104.065,-78.06 -15.684,2.765 -5.893,34.592 -5.738,-32.541 -14.51,2.558 12.53,71.057 14.51,-2.558 -5.55,-31.474 18.247,29.235 16.324,-2.879 -22.362,-35.11 z m -53.188,51.416 3.029,17.177 -10.349,1.825 -7.903,-44.81 10.35,-1.824 2.427,13.762 14.191,-2.502 -2.86,-16.217 -13.191,-8.675 -16.751,2.953 -9.322,12.645 8.767,49.718 13.191,8.676 17.178,-3.029 8.895,-12.57 -3.461,-19.63 z m 197.929,-62.524 10.065,57.08 14.83,-2.614 -10.083,-57.187 9.816,-1.731 -2.446,-13.87 -34.783,6.134 2.465,13.976 z m 107.619,11.298 -10.084,-6.033 6.974,-8.49 -3.179,-18.031 -13.086,-8.694 -27.527,4.854 12.529,71.056 14.725,-2.596 -4.985,-28.273 9.923,-1.749 4.985,28.272 14.617,-2.577 z m -27.111,-9.631 -2.859,-16.218 9.923,-1.749 2.86,16.217 z m -116.902,33.378 13.719,-1.429 2.691,15.258 -10.136,1.786 -1.656,-9.388 -14.831,2.615 2.089,11.843 13.084,8.693 17.072,-3.01 9.214,-12.625 -3.687,-20.912 -12.94,-8.499 -13.65,1.196 -2.597,-14.723 9.709,-1.712 1.694,9.602 14.297,-2.52 -2.126,-12.056 -13.084,-8.694 -16.218,2.859 -9.214,12.626 3.611,20.485 z m 105.7,11.612 -2.333,-13.229 -16.217,2.859 -3.142,-17.817 13.764,-2.427 -2.333,-13.229 -13.764,2.426 -2.408,-13.656 16.219,-2.86 -2.315,-13.123 -30.514,5.381 12.529,71.056 z m -36.754,87.487 -2.599,-14.742 11.388,-2.007 -1.931,-10.947 -11.388,2.008 -1.992,-11.299 13.418,-2.365 -1.915,-10.858 -25.246,4.451 10.366,58.791 25.247,-4.451 -1.93,-10.947 z m 32.801,-55.131 -14.037,2.475 -7.623,10.447 7.253,41.136 10.825,7.192 14.39,-2.536 7.359,-10.4 -7.254,-41.135 z m -2.583,49.879 -6.538,-37.075 8.299,-1.463 6.537,37.075 z m -63.169,-38.291 -22.952,4.047 10.366,58.79 23.394,-4.125 7.359,-10.398 -7.253,-41.136 z m -2.406,49.846 -6.537,-37.075 8.475,-1.494 6.537,37.076 z M 375.947,195 l 4.176,50.525 -13.71,-48.843 -12.27,2.163 18.046,57.436 19.598,-3.455 -3.392,-60.019 z m 0.966,-31.855 9.108,-12.607 -10.648,-60.388 -14.937,2.634 10.214,57.934 -10.456,1.843 -10.215,-57.933 -14.723,2.596 10.647,60.387 13.406,8.638 z m -48.331,-28.996 6.654,-8.434 -3.33,-18.884 -11.572,-6.98 -28.167,4.966 12.53,71.057 28.167,-4.967 9.429,-12.663 -3.312,-18.778 z m -19.484,-18.787 10.243,-1.806 2.69,15.257 -10.242,1.806 z m 7.882,44.704 -2.859,-16.217 10.242,-1.806 2.86,16.217 z m 76.337,31.872 10.367,58.79 12.359,-2.179 -10.367,-58.79 z"
       inkscape:connector-curvature="0"
       style="fill:#f7e946" /><path
       id="path13467"
       d="M 581.009,256.607 578.783,252.039 97.006,337.03 57.703,114.212 540.183,29.104 537.371,24.827 52.196,110.346 93.14,342.536 Z"
       inkscape:connector-curvature="0"
       style="fill:#f7e946" /></g></svg>